<?xml version="1.0" standalone="no"?>
<!DOCTYPE svg PUBLIC "-//W3C//DTD SVG 20010904//EN"
 "http://www.w3.org/TR/2001/REC-SVG-20010904/DTD/svg10.dtd">
<svg version="1.0" xmlns="http://www.w3.org/2000/svg"
 width="500.000000pt" height="500.000000pt" viewBox="0 0 500.000000 500.000000"
 preserveAspectRatio="xMidYMid meet">

<g transform="translate(0.000000,500.000000) scale(0.100000,-0.100000)"
fill="#000000" stroke="none">
<path d="M2385 3734 c-83 -12 -196 -38 -250 -56 -71 -25 -215 -95 -215 -106 0
-4 18 -36 40 -72 52 -84 70 -146 70 -240 0 -100 -23 -188 -101 -385 -52 -130
-64 -171 -64 -217 0 -67 14 -85 88 -112 110 -41 137 -95 137 -280 l0 -121 18
35 c21 44 50 49 88 16 l29 -24 25 30 c41 48 74 42 188 -34 124 -83 172 -108
245 -127 32 -9 58 -20 58 -26 1 -27 -304 -89 -415 -83 l-69 3 -13 -35 c-16
-45 -17 -141 -2 -175 22 -48 50 -44 194 28 106 53 153 70 235 87 130 26 177
51 206 110 19 38 22 41 23 20 1 -67 -74 -122 -191 -141 -91 -15 -163 -41 -281
-104 -151 -79 -195 -74 -217 25 -10 44 2 132 24 183 4 10 3 17 -5 17 -25 0
-110 43 -110 56 0 24 65 17 97 -10 49 -40 69 -46 165 -46 87 0 162 12 268 40
l45 12 -61 22 c-72 27 -132 60 -233 133 -41 29 -83 53 -93 53 -11 0 -33 -13
-48 -30 -15 -16 -31 -30 -35 -30 -3 0 -22 12 -42 27 l-35 27 -18 -22 c-10 -12
-21 -41 -25 -65 -10 -62 -15 -78 -26 -72 -5 4 -9 73 -9 155 0 238 -17 282
-127 332 -116 52 -127 111 -55 293 22 55 57 152 78 215 34 105 38 125 38 225
1 106 0 114 -32 176 -18 35 -43 78 -56 94 l-23 29 -44 -34 c-162 -126 -257
-234 -337 -388 -148 -283 -172 -584 -71 -887 108 -322 373 -587 700 -698 163
-56 379 -72 555 -42 531 93 924 562 924 1104 0 529 -374 987 -895 1096 -79 16
-281 28 -340 19z m28 -1084 c34 -56 11 -144 -40 -156 -17 -5 -45 -1 -72 9 -41
15 -45 14 -70 -4 -14 -10 -44 -20 -66 -22 -37 -2 -40 0 -40 23 0 16 9 29 27
39 23 13 33 14 75 2 141 -40 137 -40 158 -27 26 17 39 71 25 105 -6 15 -24 35
-41 45 -16 9 -27 21 -24 26 9 15 50 -9 68 -40z"/>
<path d="M2144 2513 c-16 -17 -16 -18 -1 -21 23 -5 87 17 87 29 0 16 -68 10
-86 -8z"/>
<path d="M1380 1311 c-45 -4 -68 -9 -57 -13 15 -7 17 -25 17 -178 0 -168 0
-171 -22 -180 -17 -6 -1 -9 57 -9 58 0 74 3 58 9 -21 9 -23 16 -23 90 0 78 1
80 24 80 19 0 32 -13 56 -52 18 -29 46 -70 62 -90 29 -37 32 -38 91 -38 l62 0
-32 16 c-33 17 -79 67 -128 141 l-27 43 31 35 c39 44 41 86 6 120 -13 14 -35
25 -49 25 -13 0 -30 1 -38 3 -7 2 -47 1 -88 -2z m116 -36 c12 -18 15 -38 11
-72 -6 -52 -25 -73 -69 -73 l-28 0 0 78 c0 43 3 82 7 85 16 17 63 6 79 -18z"/>
<path d="M2936 1305 c-132 -47 -184 -180 -113 -286 51 -75 150 -109 256 -88
36 7 61 17 61 24 0 7 3 27 7 46 l6 33 -45 -47 c-40 -42 -49 -47 -89 -47 -99 0
-155 78 -147 201 8 103 58 162 140 162 45 0 82 -23 108 -66 l20 -32 0 47 c0
46 -1 47 -37 57 -52 15 -120 13 -167 -4z"/>
<path d="M3418 1138 c-62 -136 -90 -186 -108 -195 -22 -11 -16 -13 50 -13 67
0 72 2 50 13 -31 15 -37 54 -15 96 15 30 17 31 91 31 l75 0 24 -52 c30 -63 31
-75 8 -81 -10 -3 17 -5 59 -6 l77 -1 -23 23 c-12 12 -62 100 -110 195 -47 95
-88 172 -90 172 -2 0 -41 -82 -88 -182z m92 22 c16 -33 30 -62 30 -65 0 -3
-27 -5 -61 -5 -33 0 -59 4 -57 8 2 4 14 33 27 65 14 31 26 57 28 57 1 0 16
-27 33 -60z"/>
<path d="M3950 1310 c-44 -3 -68 -8 -57 -12 15 -7 17 -25 17 -178 0 -168 0
-171 -22 -180 -17 -6 -1 -9 57 -9 58 0 74 3 58 9 -21 9 -23 16 -23 90 0 78 1
80 24 80 19 0 32 -13 56 -52 18 -29 46 -70 62 -90 29 -37 32 -38 91 -38 l62 0
-32 16 c-33 17 -79 67 -128 141 l-27 43 31 35 c56 64 33 132 -50 144 -24 3
-78 4 -119 1z m116 -35 c12 -18 15 -38 11 -72 -6 -52 -25 -73 -69 -73 l-28 0
0 78 c0 43 3 82 7 85 16 17 63 6 79 -18z"/>
<path d="M323 1300 c15 -10 17 -30 17 -181 0 -167 0 -170 -22 -179 -16 -6 13
-9 93 -9 128 -1 166 9 213 55 84 85 72 227 -26 291 -39 26 -49 28 -167 31 -93
2 -121 0 -108 -8z m206 -15 c89 -45 99 -267 15 -322 -37 -24 -97 -28 -117 -8
-14 14 -17 39 -17 169 0 105 4 156 12 164 16 16 73 15 107 -3z"/>
<path d="M873 1299 c15 -9 17 -29 17 -180 0 -167 0 -170 -22 -179 -15 -6 24
-8 117 -7 l140 2 3 50 3 50 -21 -33 c-23 -38 -59 -54 -109 -50 l-36 3 -3 83
-3 82 41 0 c30 0 47 -6 65 -25 l25 -24 0 54 0 55 -20 -20 c-14 -14 -33 -20
-65 -20 l-45 0 0 75 0 75 49 0 c43 0 53 -4 75 -31 l26 -31 0 41 0 41 -127 0
c-92 -1 -123 -3 -110 -11z"/>
<path d="M1847 1300 c37 -15 41 -38 35 -188 -5 -137 -6 -144 -30 -162 l-25
-20 64 1 c54 0 60 2 41 11 -30 15 -33 33 -30 168 l3 115 73 -140 c41 -77 77
-144 82 -148 4 -5 34 55 66 132 33 77 62 141 67 141 4 0 8 -43 9 -95 4 -182 6
-168 -22 -176 -15 -4 10 -7 60 -7 58 -1 78 2 63 8 -24 10 -31 53 -35 240 -3
102 -3 104 22 117 23 12 22 13 -26 13 l-52 0 -58 -135 c-33 -74 -61 -135 -64
-135 -3 0 -37 60 -76 133 l-70 132 -60 2 c-43 2 -53 0 -37 -7z"/>
<path d="M2493 1299 c15 -9 17 -29 17 -180 0 -167 0 -170 -22 -179 -17 -6 -1
-9 57 -9 58 0 74 3 58 9 -23 9 -23 12 -23 179 0 151 2 171 18 180 13 8 -1 10
-53 10 -52 0 -66 -2 -52 -10z"/>
<path d="M4433 1299 c15 -9 17 -29 17 -180 0 -167 0 -170 -22 -179 -15 -6 24
-8 117 -7 l140 2 3 50 3 50 -21 -33 c-23 -38 -59 -54 -109 -50 l-36 3 -3 83
-3 82 41 0 c30 0 47 -6 65 -25 l25 -24 0 54 0 55 -20 -20 c-14 -14 -33 -20
-65 -20 l-45 0 0 75 0 75 49 0 c43 0 53 -4 75 -31 l26 -31 0 41 0 41 -127 0
c-92 -1 -123 -3 -110 -11z"/>
</g>
</svg>
